<svg xmlns="http://www.w3.org/2000/svg" width="26.575" height="36.714" viewBox="0 0 26.575 36.714"><defs><style>.a{fill:#6ffdc5;}.b{stroke:rgba(0,0,0,0);stroke-miterlimit:10;}</style></defs><g transform="translate(0.5 0.738)"><path class="a" d="M452.654,457.943c1.235,0,11.472.16,11.472-10.846,0-8.918-11.472-21.372-11.472-21.372s-11.472,12.454-11.472,21.372C441.182,458.1,451.42,457.943,452.654,457.943Z" transform="translate(-439.867 -423.783)"/><path class="b" d="M452.869,459.46h-.158a13.293,13.293,0,0,1-9.533-3.437c-2.107-2.1-3.175-5.039-3.175-8.724,0-9.324,11.337-21.741,11.82-22.264l.967-1.051.968,1.051c.482.523,11.82,12.94,11.82,22.264,0,3.685-1.069,6.621-3.175,8.724A13.3,13.3,0,0,1,452.869,459.46Zm-.079-2.632h.079a10.725,10.725,0,0,0,7.674-2.667c1.594-1.592,2.4-3.9,2.4-6.862,0-3.382-1.906-7.979-5.509-13.292a71.67,71.67,0,0,0-4.646-6.084c-2.706,3.179-10.156,12.551-10.156,19.377,0,2.961.808,5.27,2.4,6.862a10.722,10.722,0,0,0,7.673,2.667h.079Z" transform="translate(-440.003 -423.984)"/><path class="b" d="M456.922,444.931a5.814,5.814,0,0,1-1.22,3.526,4.938,4.938,0,0,1-3.343,1.51v2.665a7.542,7.542,0,0,0,5.331-2.451,8.336,8.336,0,0,0,1.85-5.251Z" transform="translate(-438.575 -421.563)"/></g></svg>