<svg id="Component_6_1" data-name="Component 6 – 1" xmlns="http://www.w3.org/2000/svg" xmlns:xlink="http://www.w3.org/1999/xlink" width="48" height="48" viewBox="0 0 48 48">
  <defs>
    <clipPath id="clip-path">
      <rect id="Rectangle_121" data-name="Rectangle 121" width="27.879" height="27.879" fill="#93f9c9"/>
    </clipPath>
  </defs>
  <circle id="Ellipse_20" data-name="Ellipse 20" cx="24" cy="24" r="24" fill="#231f20"/>
  <g id="Group_90" data-name="Group 90" transform="translate(10.3 9.648)">
    <g id="Group_89" data-name="Group 89" clip-path="url(#clip-path)">
      <path id="Path_258" data-name="Path 258" d="M27.737,5.2V22.536a5.216,5.216,0,0,1-5.2,5.2H5.2a5.021,5.021,0,0,1-3.675-1.53A4.992,4.992,0,0,1,0,22.536V5.2A5.009,5.009,0,0,1,1.526,1.526,5.017,5.017,0,0,1,5.2,0H22.536a5.009,5.009,0,0,1,3.675,1.526A5.009,5.009,0,0,1,27.737,5.2M8.723,6.823A2.153,2.153,0,0,0,8.072,5.27a2.314,2.314,0,0,0-1.678-.615,2.414,2.414,0,0,0-1.706.615,2.04,2.04,0,0,0-.661,1.553,2.058,2.058,0,0,0,.643,1.544,2.3,2.3,0,0,0,1.669.624h.018a2.379,2.379,0,0,0,1.715-.624,2.05,2.05,0,0,0,.652-1.544m-4.443,16.4h4.17V10.688H4.281Zm15.006,0h4.17V16.032a5.978,5.978,0,0,0-1.318-4.207A4.527,4.527,0,0,0,18.653,10.4a4.193,4.193,0,0,0-3.772,2.113h.037V10.688H10.744q.055,1.193,0,12.533h4.174V16.212a2.9,2.9,0,0,1,.125-1.008,2.813,2.813,0,0,1,.814-1.077,2.068,2.068,0,0,1,1.336-.444q2.094,0,2.094,2.838Z" transform="translate(0 0)" fill="#93f9c9"/>
    </g>
  </g>
</svg>
