<svg xmlns="http://www.w3.org/2000/svg" xmlns:xlink="http://www.w3.org/1999/xlink" width="238.262" height="238.262" viewBox="0 0 238.262 238.262"><defs><style>.a,.c{fill:#fff;}.a{stroke:#fff;stroke-width:2px;}.b{clip-path:url(#a);}.d{fill:#a7fdc6;}.e,.f{stroke:none;}</style><clipPath id="a"><circle class="a" cx="115.131" cy="115.131" r="115.131"/></clipPath></defs><circle cx="119.131" cy="119.131" r="119.131"/><g class="b" transform="translate(4 4)"><path class="c" d="M0,130.468,37.507-9.479,0-11.25Z" transform="translate(117.05 -15.62)"/><g class="d" transform="translate(12.088 -27.132)"><path class="e" d="M 151.665771484375 260.0955200195312 L -24.00684547424316 260.0955200195312 L -24.00684547424316 1.499993324279785 L 103.4614562988281 1.499993324279785 L 103.4614562988281 141.9801940917969 L 103.4614562988281 142.2751922607422 L 103.5731582641602 142.5481872558594 L 151.665771484375 260.0955200195312 Z"/><path class="f" d="M -22.50685119628906 3 L -22.50685119628906 258.5955200195312 L 149.4313659667969 258.5955200195312 L 102.1848297119141 143.1161804199219 L 101.9614410400391 142.5701599121094 L 101.9614410400391 141.9801940917969 L 101.9614410400391 3 L -22.50685119628906 3 M -25.50685119628906 0 L 104.9614410400391 0 L 104.9614410400391 141.9801940917969 L 153.9001617431641 261.5955200195312 L -25.50685119628906 261.5955200195312 L -25.50685119628906 0 Z"/></g></g></svg>