<svg xmlns="http://www.w3.org/2000/svg" width="152" height="157" viewBox="0 0 152 157"><defs><style>.a,.c{fill:#fff;}.a{opacity:0;}.b{fill:#000100;}.d{stroke:rgba(0,0,0,0);stroke-miterlimit:10;}</style></defs><rect class="a" width="152" height="152" transform="translate(0 5)"/><g transform="translate(-24.028 -66.506)"><path class="b" d="M148.88,124.954h-2.962V96.233a15.589,15.589,0,0,0-31.178,0v74.259a22.495,22.495,0,0,1-44.989,0V168.3h9.962V158.6h22.624V72.523H73.832V66.506h-9.3v6.017H36.028V158.6H58.652V168.3h7.8v2.19a25.792,25.792,0,0,0,51.583,0V96.233a12.292,12.292,0,0,1,24.584,0v28.721h-2.963V137.6h2.963v4.166h3.3V137.6h2.962ZM39.325,155.317V140.6H53.672v-3.278H39.325V126.5H53.672v-3.278H39.325V110.077H53.672V106.8H39.325V93.652H53.672V90.373H39.325V75.8H99.04v79.515H39.325ZM61.948,158.6H76.417v6.428H61.948Z"/><g transform="translate(131.8 149.56)"><path class="c" d="M451.868,455.737c1.15,0,10.686.149,10.686-10.1,0-8.307-10.686-19.909-10.686-19.909s-10.686,11.6-10.686,19.909C441.182,455.886,450.719,455.737,451.868,455.737Z" transform="translate(-439.957 -423.916)"/><path class="d" d="M451.988,457.03h-.148a12.382,12.382,0,0,1-8.88-3.2A11.017,11.017,0,0,1,440,445.7c0-8.686,10.56-20.252,11.01-20.739l.9-.979.9.979c.449.487,11.01,12.054,11.01,20.739a11.022,11.022,0,0,1-2.958,8.127A12.391,12.391,0,0,1,451.988,457.03Zm-.074-2.451h.074a9.991,9.991,0,0,0,7.149-2.485,8.681,8.681,0,0,0,2.238-6.392c0-3.151-1.775-7.432-5.132-12.382a66.751,66.751,0,0,0-4.328-5.668c-2.521,2.962-9.461,11.692-9.461,18.05a8.677,8.677,0,0,0,2.238,6.392,9.988,9.988,0,0,0,7.148,2.485h.074Z" transform="translate(-440.003 -423.984)"/><path class="d" d="M456.609,444.931a5.416,5.416,0,0,1-1.137,3.285,4.6,4.6,0,0,1-3.114,1.407v2.483a7.026,7.026,0,0,0,4.966-2.283,7.765,7.765,0,0,0,1.723-4.892Z" transform="translate(-439.519 -423.163)"/></g></g></svg>