<svg id="Component_4_1" data-name="Component 4 – 1" xmlns="http://www.w3.org/2000/svg" width="48" height="48" viewBox="0 0 48 48">
  <circle id="Ellipse_12" data-name="Ellipse 12" cx="24" cy="24" r="24" fill="#231f20"/>
  <path id="Path_248" data-name="Path 248" d="M250.182,428.107a13.082,13.082,0,0,0,3.778-1.015,13.7,13.7,0,0,1-3.294,3.393c.016.193.021.474.021.854a18.635,18.635,0,0,1-.77,5.277,19.243,19.243,0,0,1-2.347,5.053,19.793,19.793,0,0,1-3.752,4.278,16.772,16.772,0,0,1-5.246,2.966A19.189,19.189,0,0,1,232,450.022a18.26,18.26,0,0,1-10.081-2.946,14.641,14.641,0,0,0,1.587.078,12.838,12.838,0,0,0,8.15-2.805,6.591,6.591,0,0,1-6.141-4.554,8.392,8.392,0,0,0,1.244.1,6.731,6.731,0,0,0,1.728-.224,6.445,6.445,0,0,1-3.773-2.269,6.35,6.35,0,0,1-1.494-4.179v-.078a6.517,6.517,0,0,0,2.967.833,6.582,6.582,0,0,1-2.134-2.337,6.593,6.593,0,0,1,.1-6.448,18.527,18.527,0,0,0,5.985,4.85,18.293,18.293,0,0,0,7.552,2.024,7.258,7.258,0,0,1-.161-1.5,6.572,6.572,0,0,1,11.361-4.5,12.84,12.84,0,0,0,4.169-1.582,6.374,6.374,0,0,1-2.883,3.617Z" transform="translate(-213.717 -413.232)" fill="#93f9c9"/>
</svg>
